<?xml version="1.0" encoding="UTF-8" standalone="no"?>
<svg
   role="img"
   viewBox="0 0 24 24"
   version="1.1"
   id="svg1"
   sodipodi:docname="discord.svg"
   inkscape:version="1.3 (0e150ed6c4, 2023-07-21)"
   xmlns:inkscape="http://www.inkscape.org/namespaces/inkscape"
   xmlns:sodipodi="http://sodipodi.sourceforge.net/DTD/sodipodi-0.dtd"
   xmlns="http://www.w3.org/2000/svg"
   xmlns:svg="http://www.w3.org/2000/svg">
  <defs
     id="defs1" />
  <sodipodi:namedview
     id="namedview1"
     pagecolor="#ffffff"
     bordercolor="#000000"
     borderopacity="0.25"
     inkscape:showpageshadow="2"
     inkscape:pageopacity="0.0"
     inkscape:pagecheckerboard="0"
     inkscape:deskcolor="#d1d1d1"
     inkscape:zoom="22.627417"
     inkscape:cx="12.219689"
     inkscape:cy="12.705825"
     inkscape:window-width="1920"
     inkscape:window-height="1011"
     inkscape:window-x="0"
     inkscape:window-y="0"
     inkscape:window-maximized="1"
     inkscape:current-layer="svg1" />
  <title
     id="title1">Discord</title>
  <path
     d="M20.317 4.3698a19.7913 19.7913 0 00-4.8851-1.5152.0741.0741 0 00-.0785.0371c-.211.3753-.4447.8648-.6083 1.2495-1.8447-.2762-3.68-.2762-5.4868 0-.1636-.3933-.4058-.8742-.6177-1.2495a.077.077 0 00-.0785-.037 19.7363 19.7363 0 00-4.8852 1.515.0699.0699 0 00-.0321.0277C.5334 9.0458-.319 13.5799.0992 18.0578a.0824.0824 0 00.0312.0561c2.0528 1.5076 4.0413 2.4228 5.9929 3.0294a.0777.0777 0 00.0842-.0276c.4616-.6304.8731-1.2952 1.226-1.9942a.076.076 0 00-.0416-.1057c-.6528-.2476-1.2743-.5495-1.8722-.8923a.077.077 0 01-.0076-.1277c.1258-.0943.2517-.1923.3718-.2914a.0743.0743 0 01.0776-.0105c3.9278 1.7933 8.18 1.7933 12.0614 0a.0739.0739 0 01.0785.0095c.1202.099.246.1981.3728.2924a.077.077 0 01-.0066.1276 12.2986 12.2986 0 01-1.873.8914.0766.0766 0 00-.0407.1067c.3604.698.7719 1.3628 1.225 1.9932a.076.076 0 00.0842.0286c1.961-.6067 3.9495-1.5219 6.0023-3.0294a.077.077 0 00.0313-.0552c.5004-5.177-.8382-9.6739-3.5485-13.6604a.061.061 0 00-.0312-.0286zM8.02 15.3312c-1.1825 0-2.1569-1.0857-2.1569-2.419 0-1.3332.9555-2.4189 2.157-2.4189 1.2108 0 2.1757 1.0952 2.1568 2.419 0 1.3332-.9555 2.4189-2.1569 2.4189zm7.9748 0c-1.1825 0-2.1569-1.0857-2.1569-2.419 0-1.3332.9554-2.4189 2.1569-2.4189 1.2108 0 2.1757 1.0952 2.1568 2.419 0 1.3332-.946 2.4189-2.1568 2.4189Z"
     id="path1" />
  <path
     style="fill:#939ab7;stroke-width:0.0298137"
     d="M 5.6496894,20.971075 C 4.3510635,20.53054 3.110047,19.965756 1.9445527,19.284876 1.5074548,19.029524 0.65753742,18.476437 0.30864656,18.220303 0.13745815,18.094628 0.12417352,18.076286 0.10726549,17.942255 -0.00597958,17.044555 5.1803925e-4,15.08556 0.12069557,13.893168 0.43896957,10.735277 1.5715054,7.6169059 3.448179,4.7311371 L 3.6674579,4.3939513 3.8972813,4.2892174 C 4.6058236,3.9663243 5.6840607,3.5782097 6.5793096,3.3238136 7.3188721,3.1136577 8.5127314,2.8538353 8.5945503,2.8852321 c 0.040752,0.015638 0.501614,0.9005986 0.5991792,1.1505613 0.048469,0.124178 0.055251,0.1292949 0.146558,0.1105727 0.2056022,-0.042158 1.1073225,-0.1343789 1.6460475,-0.1683444 0.614947,-0.038771 1.898108,-0.022726 2.504348,0.031314 0.382889,0.034131 1.051839,0.1120239 1.182604,0.1377027 0.07344,0.014422 0.08581,0.00127 0.162288,-0.172546 C 15.00964,3.578893 15.36365,2.901272 15.404436,2.885621 c 0.02346,-0.009 0.226308,0.020103 0.450783,0.064674 1.388295,0.2756594 2.632925,0.6587897 3.953766,1.217075 l 0.504637,0.2132971 0.27371,0.418362 c 2.003755,3.0627113 3.105692,6.2826879 3.351953,9.7947599 0.0581,0.828625 0.03382,2.582712 -0.04592,3.317788 l -0.01871,0.172447 -0.357182,0.254084 c -1.275374,0.907247 -2.703485,1.68271 -4.166319,2.262308 -0.442765,0.175431 -1.445704,0.522565 -1.509792,0.522565 -0.096,0 -1.264963,-1.879406 -1.264963,-2.033747 0,-0.02961 0.120256,-0.09395 0.35031,-0.187415 0.33213,-0.134938 1.282331,-0.599607 1.490683,-0.728978 0.146577,-0.09101 0.124453,-0.150921 -0.126803,-0.343367 l -0.223697,-0.171338 -0.380029,0.163708 c -2.59854,1.119395 -5.250761,1.452668 -7.997421,1.004942 C 8.6114173,18.651059 7.3238817,18.267843 6.2653792,17.807662 L 5.927032,17.660567 5.8181742,17.736617 c -0.2241746,0.156613 -0.3672027,0.299432 -0.3483256,0.347816 0.03569,0.09148 1.2289977,0.688556 1.812139,0.906713 0.077888,0.02914 0.1416149,0.06802 0.1416149,0.08641 0,0.01839 -0.09136,0.201036 -0.2030215,0.405887 -0.3788733,0.69507 -0.998937,1.636607 -1.0789661,1.638359 -0.024596,5.39e-4 -0.2459627,-0.06729 -0.4919255,-0.150727 z m 2.8541683,-5.68954 c 0.7787216,-0.199164 1.39257,-0.854287 1.6081843,-1.716318 0.09334,-0.373182 0.09287,-0.994052 -0.001,-1.341615 C 9.9220067,11.523857 9.4841608,10.969207 8.8993789,10.688723 7.932878,10.225152 6.8523259,10.557322 6.2471797,11.504029 c -0.5758873,0.900935 -0.5157653,2.181621 0.141081,3.005225 0.5425589,0.680302 1.338782,0.970956 2.115597,0.772281 z m 7.9345513,0.01315 c 0.112678,-0.02387 0.319656,-0.09896 0.459951,-0.166871 0.210627,-0.101949 0.302222,-0.170933 0.525574,-0.395829 0.354513,-0.356966 0.525808,-0.652511 0.660033,-1.138792 0.07601,-0.275392 0.09144,-0.930267 0.02917,-1.238106 -0.213349,-1.054654 -1.034867,-1.816265 -2.013704,-1.866862 -0.371194,-0.01919 -0.65188,0.04054 -1.001461,0.213104 -0.78102,0.385532 -1.264431,1.229677 -1.264431,2.207983 0,0.722735 0.239172,1.327883 0.714099,1.806794 0.301562,0.304092 0.68267,0.517203 1.059814,0.592635 0.196397,0.03928 0.612426,0.03224 0.830956,-0.01406 z"
     id="path3" />
  <path
     style="fill:#6e738d;stroke-width:0.0441942;fill-opacity:1"
     d="M 5.4358834,20.864325 C 4.7041379,20.606508 3.7935858,20.225742 3.1819805,19.921809 2.1085165,19.388357 0.36805132,18.296942 0.17956826,18.039047 0.09099689,17.917859 0.08838835,17.86286 0.08838835,16.116601 c 0,-1.186241 0.01937548,-1.963038 0.05696495,-2.283825 C 0.51933754,10.641215 1.6301487,7.5919275 3.4324932,4.8092502 L 3.6952414,4.4035879 4.212009,4.1861982 C 5.4981105,3.6451713 7.2585753,3.1159782 8.4263109,2.9193853 l 0.1620004,-0.027273 0.3188821,0.6310702 c 0.175385,0.3470886 0.3234965,0.6366352 0.3291366,0.6434368 0.00564,0.0068 0.2565958,-0.020566 0.5576805,-0.060817 0.3715245,-0.049668 1.0018475,-0.079648 1.9616395,-0.093304 1.232963,-0.017542 1.51575,-0.00839 2.206452,0.071439 0.435731,0.050358 0.796068,0.086779 0.800749,0.080937 0.0047,-0.00584 0.152007,-0.2946039 0.327392,-0.6416925 l 0.318882,-0.6310702 0.162001,0.027619 c 1.236894,0.2108736 2.912077,0.7161016 4.258707,1.2844075 l 0.472786,0.1995252 0.329459,0.51611 c 1.759543,2.7563834 2.748525,5.4143967 3.176541,8.5373527 0.0901,0.657374 0.09997,0.905514 0.100185,2.519068 1.34e-4,0.984425 -0.01545,1.863779 -0.03463,1.954119 -0.03247,0.152962 -0.08717,0.198975 -0.795495,0.669229 -1.112735,0.738739 -1.960385,1.205148 -3.125798,1.719931 -0.452073,0.199688 -1.596375,0.629461 -2.017544,0.757741 -0.08081,0.02461 -0.128422,-0.01639 -0.302818,-0.260789 -0.217136,-0.304289 -1.037609,-1.651853 -1.037609,-1.704193 0,-0.01671 0.124296,-0.08529 0.276214,-0.152403 0.6854,-0.302802 1.620271,-0.788349 1.646469,-0.855132 0.02045,-0.05214 -0.0328,-0.12802 -0.18337,-0.261299 -0.116706,-0.103304 -0.235746,-0.187826 -0.264532,-0.187826 -0.02879,0 -0.26798,0.09039 -0.531541,0.200867 -1.352327,0.566856 -2.809639,0.936941 -4.251437,1.079657 -0.66997,0.06632 -1.990826,0.0553 -2.73463,-0.02281 C 9.1298918,18.763931 7.684772,18.383244 6.3040907,17.794235 6.1253213,17.717971 5.953231,17.655572 5.9216675,17.655572 c -0.1042523,0 -0.4814306,0.376152 -0.4525766,0.451345 0.025522,0.06651 1.2300087,0.685018 1.6903653,0.86801 0.1322453,0.05257 0.2154664,0.111428 0.2072618,0.14659 -0.050816,0.217788 -1.1215248,1.936495 -1.2237278,1.964335 -0.024307,0.0066 -0.3425049,-0.09307 -0.7071068,-0.221527 z m 3.172903,-5.595648 c 0.5635548,-0.174064 1.0258705,-0.580223 1.3170708,-1.157088 0.1942978,-0.384902 0.2608998,-0.701836 0.2608998,-1.241529 0,-0.556951 -0.113241,-0.972344 -0.3778296,-1.385962 -0.4334357,-0.677569 -1.2378165,-1.091341 -1.9743376,-1.015596 -0.9028733,0.09285 -1.6705473,0.796043 -1.9177788,1.756683 -0.093536,0.363442 -0.093536,0.995585 0,1.359028 0.1546478,0.600898 0.5907974,1.209927 1.065849,1.488325 0.4893749,0.286793 1.0958043,0.359939 1.6261264,0.196139 z m 8.1697586,-0.06305 c 0.541873,-0.219912 1.040977,-0.773011 1.261023,-1.397445 0.09892,-0.280706 0.116534,-0.406763 0.120081,-0.859294 0.0047,-0.597363 -0.04141,-0.813177 -0.273345,-1.279945 -0.201024,-0.404553 -0.598455,-0.802954 -0.984507,-0.986908 -1.556524,-0.7416876 -3.190767,0.538064 -3.074823,2.40785 0.06392,1.030911 0.635907,1.842701 1.525792,2.165491 0.403702,0.146436 0.993038,0.125873 1.425779,-0.04975 z"
     id="path2" />
</svg>
