<?xml version="1.0" encoding="UTF-8" standalone="no"?>
<svg
   role="img"
   viewBox="0 0 24 24"
   version="1.1"
   id="svg1"
   sodipodi:docname="github.svg"
   inkscape:version="1.3 (0e150ed6c4, 2023-07-21)"
   xmlns:inkscape="http://www.inkscape.org/namespaces/inkscape"
   xmlns:sodipodi="http://sodipodi.sourceforge.net/DTD/sodipodi-0.dtd"
   xmlns="http://www.w3.org/2000/svg"
   xmlns:svg="http://www.w3.org/2000/svg">
  <defs
     id="defs1" />
  <sodipodi:namedview
     id="namedview1"
     pagecolor="#ffffff"
     bordercolor="#000000"
     borderopacity="0.25"
     inkscape:showpageshadow="2"
     inkscape:pageopacity="0.0"
     inkscape:pagecheckerboard="0"
     inkscape:deskcolor="#d1d1d1"
     inkscape:zoom="33.541667"
     inkscape:cx="12"
     inkscape:cy="12"
     inkscape:window-width="1920"
     inkscape:window-height="1011"
     inkscape:window-x="0"
     inkscape:window-y="0"
     inkscape:window-maximized="1"
     inkscape:current-layer="svg1" />
  <title
     id="title1">GitHub</title>
  <path
     d="M12 .297c-6.63 0-12 5.373-12 12 0 5.303 3.438 9.8 8.205 11.385.6.113.82-.258.82-.577 0-.285-.01-1.04-.015-2.04-3.338.724-4.042-1.61-4.042-1.61C4.422 18.07 3.633 17.7 3.633 17.7c-1.087-.744.084-.729.084-.729 1.205.084 1.838 1.236 1.838 1.236 1.07 1.835 2.809 1.305 3.495.998.108-.776.417-1.305.76-1.605-2.665-.3-5.466-1.332-5.466-5.93 0-1.31.465-2.38 1.235-3.22-.135-.303-.54-1.523.105-3.176 0 0 1.005-.322 3.3 1.23.96-.267 1.98-.399 3-.405 1.02.006 2.04.138 3 .405 2.28-1.552 3.285-1.23 3.285-1.23.645 1.653.24 2.873.12 3.176.765.84 1.23 1.91 1.23 3.22 0 4.61-2.805 5.625-5.475 5.92.42.36.81 1.096.81 2.22 0 1.606-.015 2.896-.015 3.286 0 .315.21.69.825.57C20.565 22.092 24 17.592 24 12.297c0-6.627-5.373-12-12-12"
     id="path1"
     style="fill:#939ab7;fill-opacity:1" />
  <path
     style="fill:#6e738d;stroke-width:0.0298137"
     d="M 8.0496894,23.611276 C 6.357777,23.015807 4.810277,22.0434 3.5460026,20.781283 0.75867261,17.998709 -0.46762068,14.136031 0.19502004,10.226087 0.63900521,7.6063307 2.0424081,5.0997561 4.0579152,3.3266889 5.9417879,1.6694224 8.1664981,0.68010365 10.678356,0.38260789 c 0.620444,-0.0734832 2.024601,-0.0732281 2.648352,4.8105e-4 3.20765,0.37905106 6.028106,1.93832306 8.045161,4.44771956 0.279917,0.3482424 0.846267,1.1844358 1.069536,1.5791293 1.426597,2.5219254 1.884571,5.5302362 1.277207,8.3896142 -0.389378,1.833131 -1.163027,3.45494 -2.383576,4.996721 -0.374609,0.473201 -1.31934,1.414626 -1.821993,1.815616 -0.432781,0.345251 -1.157354,0.837729 -1.601348,1.088405 -0.681886,0.384989 -1.88424,0.900622 -2.23208,0.957235 -0.197988,0.03222 -0.427632,-0.02015 -0.539543,-0.123044 -0.04255,-0.03912 -0.103292,-0.128806 -0.134981,-0.199297 -0.05523,-0.122855 -0.05739,-0.208085 -0.05202,-2.057142 0.0049,-1.684848 -6.52e-4,-1.962692 -0.0438,-2.195365 -0.09684,-0.52227 -0.283339,-0.957137 -0.555129,-1.294425 -0.168802,-0.209481 -0.191393,-0.186573 0.239641,-0.243 0.139379,-0.01825 0.418822,-0.06679 0.620984,-0.107881 2.635722,-0.535695 3.99017,-1.960459 4.347097,-4.572779 0.07399,-0.541522 0.0738,-1.667575 -3.46e-4,-2.07205 C 19.418511,10.012401 19.063279,9.2382564 18.577541,8.6481835 18.465961,8.5126368 18.414062,8.4255833 18.42646,8.3947673 18.491048,8.2342374 18.592939,7.7418215 18.620239,7.4582766 18.673981,6.9001156 18.588686,6.1931633 18.395503,5.5955892 18.277443,5.2303957 18.280829,5.2334131 17.988387,5.232705 17.373024,5.2312153 16.322688,5.6340074 15.360336,6.240533 L 14.979056,6.4808359 14.54046,6.3793907 C 13.598033,6.1614129 12.792134,6.0835837 11.71677,6.1066956 10.781329,6.1268001 10.120677,6.209313 9.2967231,6.4089504 L 8.9934463,6.4824318 8.5513815,6.2097587 C 7.7578014,5.7202649 6.9630025,5.3794977 6.3762409,5.2771751 6.0790491,5.2253491 5.7899057,5.2189818 5.7086405,5.2624737 5.6417914,5.2982501 5.5052535,5.7039625 5.4065509,6.1601109 5.3504243,6.4194964 5.3393679,6.5636285 5.338215,7.0509316 c -0.00144,0.6100019 0.037002,0.8972062 0.1656221,1.2372671 0.031009,0.081988 0.056388,0.151327 0.056396,0.1540874 8e-6,0.00276 -0.06149,0.076549 -0.1366632,0.1639752 C 4.940151,9.168476 4.5875051,9.9019083 4.422542,10.688199 4.336179,11.099845 4.3160493,12.04228 4.380593,12.652173 c 0.2640026,2.49464 1.4664429,3.993784 3.7195295,4.63733 0.4216752,0.120442 1.4311742,0.315466 1.6329453,0.315466 0.019786,0 -0.019398,0.06291 -0.087076,0.139793 -0.2668416,0.303148 -0.443156,0.672705 -0.5517556,1.156487 l -0.066788,0.297523 -0.1654924,0.06653 C 8.4475187,19.431901 7.8661293,19.530775 7.4981366,19.497237 6.6830027,19.422947 6.1358209,19.060151 5.5874984,18.230432 5.4631071,18.042204 5.2910707,17.811456 5.2051954,17.717659 4.8739832,17.355896 4.4123201,17.086489 3.9652174,16.994061 c -0.4663004,-0.09639 -0.8743925,0.03441 -0.8035657,0.257566 0.033457,0.105415 0.2258606,0.294392 0.4600395,0.451848 0.5767522,0.387793 0.9700803,0.906945 1.3253509,1.749324 0.3763069,0.892258 1.0173869,1.430403 1.9926345,1.672688 0.4621335,0.114809 1.3707443,0.105023 1.9632274,-0.02115 l 0.078059,-0.01662 0.021909,1.024149 c 0.023758,1.110593 0.015391,1.201955 -0.1254044,1.36928 -0.177176,0.210562 -0.4689293,0.256427 -0.8277784,0.130129 z"
     id="path2" />
</svg>
