<?xml version="1.0" encoding="UTF-8" standalone="no"?>
<svg
   role="img"
   viewBox="0 0 24 24"
   version="1.1"
   id="svg1"
   sodipodi:docname="gitlab.svg"
   inkscape:version="1.3 (0e150ed6c4, 2023-07-21)"
   xmlns:inkscape="http://www.inkscape.org/namespaces/inkscape"
   xmlns:sodipodi="http://sodipodi.sourceforge.net/DTD/sodipodi-0.dtd"
   xmlns="http://www.w3.org/2000/svg"
   xmlns:svg="http://www.w3.org/2000/svg">
  <defs
     id="defs1" />
  <sodipodi:namedview
     id="namedview1"
     pagecolor="#ffffff"
     bordercolor="#000000"
     borderopacity="0.25"
     inkscape:showpageshadow="2"
     inkscape:pageopacity="0.0"
     inkscape:pagecheckerboard="0"
     inkscape:deskcolor="#d1d1d1"
     inkscape:zoom="33.541667"
     inkscape:cx="12"
     inkscape:cy="12"
     inkscape:window-width="1920"
     inkscape:window-height="1011"
     inkscape:window-x="0"
     inkscape:window-y="0"
     inkscape:window-maximized="1"
     inkscape:current-layer="svg1" />
  <title
     id="title1">GitLab</title>
  <path
     d="m23.6004 9.5927-.0337-.0862L20.3.9814a.851.851 0 0 0-.3362-.405.8748.8748 0 0 0-.9997.0539.8748.8748 0 0 0-.29.4399l-2.2055 6.748H7.5375l-2.2057-6.748a.8573.8573 0 0 0-.29-.4412.8748.8748 0 0 0-.9997-.0537.8585.8585 0 0 0-.3362.4049L.4332 9.5015l-.0325.0862a6.0657 6.0657 0 0 0 2.0119 7.0105l.0113.0087.03.0213 4.976 3.7264 2.462 1.8633 1.4995 1.1321a1.0085 1.0085 0 0 0 1.2197 0l1.4995-1.1321 2.4619-1.8633 5.006-3.7489.0125-.01a6.0682 6.0682 0 0 0 2.0094-7.003z"
     id="path1" />
  <path
     style="fill:#939ab7;stroke-width:0.0298137"
     d="m 11.731677,23.498177 c -0.06559,-0.02163 -0.152795,-0.0571 -0.193789,-0.07882 -0.04099,-0.02173 -1.107577,-0.820221 -2.3701861,-1.774429 C 7.9050932,20.690715 5.8322981,19.131711 4.5614907,18.18047 3.2906832,17.22923 2.1367524,16.349529 1.9972,16.225579 1.1440254,15.467793 0.48734239,14.363572 0.19344864,13.192547 -0.0586889,12.1879 -0.03001642,11.039917 0.27275261,10.017391 0.36038543,9.7214337 3.7207456,0.97433286 3.7916339,0.85765631 3.9886897,0.53331749 4.4117969,0.38424969 4.7796092,0.50957595 c 0.1722479,0.0586907 0.409881,0.26779589 0.4771877,0.41990085 0.044891,0.1014492 2.2562466,6.8467695 2.2562466,6.8822528 0,0.0079 2.0183162,0.014357 4.4851475,0.014357 h 4.485147 l 0.178446,-0.5440994 c 0.09815,-0.2992547 0.603436,-1.8454659 1.122867,-3.4360249 0.519432,-1.590559 0.970834,-2.93529686 1.003117,-2.98830639 0.141608,-0.23252458 0.440565,-0.39554451 0.725376,-0.39554451 0.334154,0 0.639486,0.2235433 0.784465,0.5743309 0.04904,0.1186521 0.835403,2.1641865 1.747477,4.5456317 1.724344,4.502298 1.779228,4.658972 1.882725,5.374448 0.07492,0.517944 0.04565,1.460775 -0.06109,1.967702 -0.205734,0.977038 -0.640979,1.902208 -1.248121,2.653049 -0.431019,0.533033 -0.639492,0.702056 -3.672013,2.977157 -1.606957,1.205594 -3.693168,2.776455 -4.636025,3.490804 -0.942857,0.714348 -1.791085,1.337487 -1.884951,1.384754 -0.201282,0.101356 -0.503324,0.131036 -0.693931,0.06819 z"
     id="path2" />
  <path
     style="fill:#6e738d;stroke-width:0.0298137"
     d="M 11.729936,23.479804 C 11.562395,23.428966 12.135823,23.853116 6.2012422,19.390369 2.1483045,16.342599 2.0374309,16.256551 1.6830074,15.883799 0.94860488,15.111417 0.37353048,14.013552 0.16414853,12.984171 -0.03797682,11.990465 0.01813335,10.852344 0.31276445,9.9696917 0.4541158,9.546233 2.6460228,3.8169495 3.4824193,1.6847362 3.7573574,0.98384093 3.8340861,0.81684563 3.9212213,0.72971024 4.0740864,0.57684523 4.2304659,0.51114548 4.4735365,0.49766625 4.7343315,0.48320413 4.8885373,0.5474493 5.0941922,0.75624393 L 5.2359503,0.90016596 6.0665536,3.4314494 c 0.4568315,1.3922059 0.9668535,2.9505381 1.1333819,3.4629605 l 0.3027787,0.931677 h 4.4983138 4.498315 l 0.481119,-1.468323 c 1.864161,-5.68921708 1.792976,-5.48200957 1.930601,-5.61963418 0.221175,-0.22117588 0.621778,-0.31347419 0.884367,-0.20375729 0.138012,0.057665 0.365679,0.2725205 0.437086,0.41249008 0.06076,0.11910519 0.613633,1.54897789 1.939421,5.01587039 1.610566,4.2115741 1.677355,4.4080211 1.755498,5.1634131 0.04297,0.415375 0.02037,1.204396 -0.04596,1.604289 -0.171691,1.035189 -0.700351,2.167974 -1.377062,2.950695 -0.426405,0.493203 -0.571016,0.606395 -5.719323,4.476701 -4.409593,3.314968 -4.327088,3.254415 -4.508709,3.309075 -0.146711,0.04415 -0.422029,0.05065 -0.546448,0.0129 z"
     id="path3" />
</svg>
