<?xml version="1.0" encoding="UTF-8" standalone="no"?>
<svg
   role="img"
   viewBox="0 0 24 24"
   version="1.1"
   id="svg1"
   sodipodi:docname="mastodon.svg"
   inkscape:version="1.3 (0e150ed6c4, 2023-07-21)"
   xmlns:inkscape="http://www.inkscape.org/namespaces/inkscape"
   xmlns:sodipodi="http://sodipodi.sourceforge.net/DTD/sodipodi-0.dtd"
   xmlns="http://www.w3.org/2000/svg"
   xmlns:svg="http://www.w3.org/2000/svg">
  <defs
     id="defs1" />
  <sodipodi:namedview
     id="namedview1"
     pagecolor="#ffffff"
     bordercolor="#000000"
     borderopacity="0.25"
     inkscape:showpageshadow="2"
     inkscape:pageopacity="0.0"
     inkscape:pagecheckerboard="0"
     inkscape:deskcolor="#d1d1d1"
     showgrid="false"
     inkscape:zoom="33.541667"
     inkscape:cx="12"
     inkscape:cy="12"
     inkscape:window-width="1920"
     inkscape:window-height="1011"
     inkscape:window-x="0"
     inkscape:window-y="0"
     inkscape:window-maximized="1"
     inkscape:current-layer="svg1" />
  <title
     id="title1">Mastodon</title>
  <path
     d="M23.268 5.313c-.35-2.578-2.617-4.61-5.304-5.004C17.51.242 15.792 0 11.813 0h-.03c-3.98 0-4.835.242-5.288.309C3.882.692 1.496 2.518.917 5.127.64 6.412.61 7.837.661 9.143c.074 1.874.088 3.745.26 5.611.118 1.24.325 2.47.62 3.68.55 2.237 2.777 4.098 4.96 4.857 2.336.792 4.849.923 7.256.38.265-.061.527-.132.786-.213.585-.184 1.27-.39 1.774-.753a.057.057 0 0 0 .023-.043v-1.809a.052.052 0 0 0-.02-.041.053.053 0 0 0-.046-.01 20.282 20.282 0 0 1-4.709.545c-2.73 0-3.463-1.284-3.674-1.818a5.593 5.593 0 0 1-.319-1.433.053.053 0 0 1 .066-.054c1.517.363 3.072.546 4.632.546.376 0 .75 0 1.125-.01 1.57-.044 3.224-.124 4.768-.422.038-.008.077-.015.11-.024 2.435-.464 4.753-1.92 4.989-5.604.008-.145.03-1.52.03-1.67.002-.512.167-3.63-.024-5.545zm-3.748 9.195h-2.561V8.29c0-1.309-.55-1.976-1.67-1.976-1.23 0-1.846.79-1.846 2.35v3.403h-2.546V8.663c0-1.56-.617-2.35-1.848-2.35-1.112 0-1.668.668-1.67 1.977v6.218H4.822V8.102c0-1.31.337-2.35 1.011-3.12.696-.77 1.608-1.164 2.74-1.164 1.311 0 2.302.5 2.962 1.498l.638 1.06.638-1.06c.66-.999 1.65-1.498 2.96-1.498 1.13 0 2.043.395 2.74 1.164.675.77 1.012 1.81 1.012 3.12z"
     id="path1" />
  <path
     style="fill:#939ab7;stroke-width:0.0298137"
     d="M 10.047205,23.966931 C 8.9794086,23.892351 7.9953624,23.717614 7.0062112,23.42694 6.3953781,23.24744 6.0978857,23.132591 5.5602484,22.868715 3.7515062,21.980974 2.291524,20.489686 1.7204512,18.946584 1.4893661,18.322166 1.1780977,16.781726 1.0156096,15.458385 0.86595807,14.239588 0.81615099,13.362553 0.6973017,9.8534161 0.57319142,6.1889435 0.80734783,4.6882936 1.723073,3.2795031 2.2092712,2.5315153 2.9882649,1.787956 3.7983032,1.2986697 4.1439721,1.0898757 4.7767689,0.79097507 5.1511546,0.65965213 6.4687728,0.19747232 8.3383441,0.01615635 11.791304,0.01567289 c 3.054736,-4.2771e-4 5.513232,0.14909646 6.658831,0.4049859 1.993361,0.44525176 3.701264,1.82676931 4.437395,3.58939631 0.177129,0.4241259 0.316914,0.9339103 0.363757,1.3265909 0.0679,0.569243 0.100294,1.7121331 0.08365,2.9515528 -0.0274,2.0401992 -0.07824,4.0581842 -0.112256,4.4564512 -0.160903,1.883698 -0.913128,3.315507 -2.248764,4.280364 -0.322766,0.233165 -1.161657,0.653945 -1.595031,0.800054 -1.289234,0.434656 -3.308886,0.679718 -6.012318,0.729529 -2.401979,0.04426 -3.6158956,-0.06695 -5.7268124,-0.524644 -0.062882,-0.01363 -0.067081,-0.0048 -0.067081,0.141708 0,0.329789 0.2184701,1.213068 0.3797089,1.535171 0.396695,0.792469 1.2464303,1.349222 2.3631485,1.548353 1.237082,0.220594 3.451913,0.08657 5.466988,-0.330809 0.295181,-0.06114 0.514013,-0.09319 0.529638,-0.07756 0.01481,0.01481 0.02312,0.429248 0.01873,0.934006 l -0.0079,0.907381 -0.238509,0.141805 c -0.411728,0.244793 -1.372828,0.588696 -2.232379,0.798794 -0.422877,0.103364 -1.104602,0.219762 -1.658304,0.28314 -0.382888,0.04383 -1.790241,0.07988 -2.146584,0.05499 z M 7.4007426,11.142857 c 0.00908,-3.3801652 0.00933,-3.3920588 0.074065,-3.6210742 0.1855274,-0.6563014 0.579283,-1.0500698 1.1542709,-1.1543085 0.4468013,-0.081 1.0022477,-0.011173 1.338361,0.1682486 0.2085745,0.1113401 0.4927465,0.4013689 0.6078305,0.6203583 0.126737,0.2411627 0.236051,0.6301851 0.274847,0.9781115 0.01918,0.171978 0.03187,1.0165732 0.03187,2.1205333 v 1.834715 h 1.281987 1.281988 l 7.2e-5,-1.691925 c 9.9e-5,-2.3079627 0.03168,-2.6454036 0.29841,-3.1881974 0.284468,-0.5788979 0.801469,-0.8728794 1.535058,-0.8728794 0.84604,0 1.328765,0.3492831 1.571377,1.1369929 l 0.0673,0.2184934 0.0088,3.4211175 0.0088,3.421118 h 1.296051 1.29605 v -3.444653 c 0,-2.23957 -0.01113,-3.545935 -0.03181,-3.7341612 C 19.388112,6.3720447 19.03945,5.5425147 18.467444,4.9078864 18.094754,4.4943947 17.40448,4.0830162 16.839957,3.9379629 15.81282,3.6740413 14.633463,3.814436 13.829109,4.296384 c -0.275762,0.1652288 -0.675047,0.5270704 -0.874713,0.7926839 -0.07392,0.098342 -0.26412,0.39552 -0.422656,0.6603957 -0.158535,0.2648759 -0.304667,0.5059557 -0.324737,0.535733 -0.03216,0.047711 -0.07794,-0.014628 -0.38555,-0.5249402 C 11.629471,5.4417618 11.389428,5.0819946 11.288025,4.9607741 10.622127,4.1647358 9.56843,3.7515202 8.3575907,3.8115807 7.3454794,3.8617842 6.5637448,4.2040949 5.9148787,4.8812109 5.2808479,5.5428456 4.9289688,6.411044 4.8300775,7.557764 4.8127829,7.7583071 4.8004043,9.2773553 4.8002549,11.217391 L 4.8,14.534161 h 1.2958155 1.2958154 z"
     id="path2" />
  <path
     style="fill:#6e738d;stroke-width:0.0298137"
     d="M 9.7937887,23.936836 C 8.6295341,23.809894 7.731444,23.633129 6.8124223,23.350034 5.2531796,22.869726 3.7098475,21.836098 2.7171592,20.607281 2.3141414,20.108398 1.9361691,19.468904 1.7465164,18.965043 1.4269069,18.115919 1.0348926,15.897943 0.91068992,14.236025 0.81565018,12.964327 0.72076896,10.58184 0.69519267,8.8248446 0.65292254,5.921045 0.90152746,4.5871444 1.7202634,3.3247823 2.2043499,2.578397 2.9759437,1.8295942 3.757276,1.3479383 4.1056686,1.13317 4.8804459,0.77117524 5.2717126,0.64035678 6.2181045,0.32393453 7.4023217,0.15699513 9.2869564,0.07432696 10.165527,0.03578907 13.49917,0.03563205 14.489441,0.07408191 c 3.413373,0.13253312 4.571102,0.3551554 5.86866,1.12849779 1.647155,0.9817012 2.694679,2.5409331 2.897526,4.3129482 0.05337,0.4662127 0.06949,2.8972048 0.031,4.6750521 -0.04152,1.917684 -0.07253,2.609716 -0.135868,3.03178 -0.253079,1.686405 -1.044782,3.015365 -2.29468,3.851874 -0.304759,0.203963 -1.037224,0.571043 -1.41757,0.710424 -0.98109,0.359529 -2.758616,0.621811 -4.829813,0.71266 -2.833576,0.124289 -4.392203,0.03642 -6.3495078,-0.357976 -0.3193097,-0.06434 -0.6044029,-0.116982 -0.6335404,-0.116982 -0.161093,0 0.07317,1.211301 0.3343108,1.728619 0.3705376,0.73403 1.1847369,1.277428 2.2332124,1.490448 0.512426,0.104111 0.942009,0.12887 1.926084,0.111011 1.223968,-0.02221 2.131701,-0.12102 3.483225,-0.379152 0.341612,-0.06525 0.640315,-0.118628 0.663785,-0.118628 0.03627,0 0.04149,0.137633 0.03479,0.91677 l -0.0079,0.916771 -0.223501,0.126803 c -0.804758,0.456582 -2.323377,0.887591 -3.756624,1.066192 -0.360624,0.04494 -2.23727,0.08639 -2.5192543,0.05564 z M 7.3972644,14.481987 c 0.00191,-0.0287 0.012973,-1.574906 0.024582,-3.436024 0.019552,-3.1348237 0.025029,-3.3959151 0.074412,-3.5477769 0.1977874,-0.6082274 0.5657375,-0.9813123 1.0885285,-1.1037186 0.089335,-0.020917 0.2905768,-0.037263 0.447205,-0.036326 0.5408613,0.00324 0.9260896,0.1369423 1.2155781,0.421901 0.275419,0.2711084 0.402283,0.5062929 0.518969,0.9620824 0.06,0.2343682 0.06515,0.3601074 0.09413,2.2976261 l 0.03065,2.04969 h 1.273391 1.273391 l 0.02029,-1.751553 c 0.02769,-2.3903246 0.05175,-2.627407 0.318748,-3.1406093 0.212767,-0.4089647 0.5453,-0.6720563 0.99434,-0.7866967 0.209682,-0.053532 0.746234,-0.060358 0.97612,-0.012419 0.526113,0.1097143 0.872399,0.4532807 1.084038,1.075525 l 0.07271,0.2137735 8.4e-5,2.8643435 c 4.6e-5,1.575389 0.0089,3.115896 0.01962,3.423349 l 0.01954,0.559006 h 1.293183 1.293183 l -0.0098,-3.674534 -0.0098,-3.6745337 -0.06748,-0.2981366 C 19.207518,5.8467893 18.754659,5.0531782 18.126361,4.5797417 17.400796,4.0330118 16.704618,3.8010085 15.790826,3.8014181 14.828966,3.8018492 14.073586,4.0436807 13.468315,4.5449596 13.142949,4.8144241 12.940824,5.0551211 12.665801,5.5006211 12.559511,5.672795 12.408468,5.9175917 12.330149,6.0446137 12.251829,6.171636 12.177421,6.2691795 12.164796,6.2613769 12.152172,6.2535747 12.023988,6.0557342 11.879944,5.8217321 11.735901,5.5877297 11.543178,5.288944 11.451673,5.1577639 10.959684,4.4524606 10.199389,3.998956 9.2468857,3.84264 8.88581,3.7833838 8.0312985,3.8017577 7.6919254,3.8760754 6.2935322,4.1823026 5.303288,5.2014925 4.950172,6.6979736 4.8033269,7.3202921 4.8,7.4176424 4.8,11.09221 v 3.441951 h 1.2968943 c 1.2139376,0 1.2971169,-0.0033 1.3003701,-0.05217 z"
     id="path3" />
</svg>
